<?xml version="1.0" standalone="no"?>
<!DOCTYPE svg PUBLIC "-//W3C//DTD SVG 20010904//EN"
 "http://www.w3.org/TR/2001/REC-SVG-20010904/DTD/svg10.dtd">
<svg version="1.0" xmlns="http://www.w3.org/2000/svg"
 width="640.000000pt" height="635.000000pt" viewBox="0 0 640.000000 635.000000"
 preserveAspectRatio="xMidYMid meet">

<g transform="translate(0.000000,635.000000) scale(0.100000,-0.100000)"
fill="#000000" stroke="none">
<path d="M0 3175 l0 -3175 3200 0 3200 0 0 3175 0 3175 -3200 0 -3200 0 0
-3175z m3540 2810 c69 -14 152 -36 185 -46 91 -31 238 -106 281 -144 l39 -34
-85 44 c-108 57 -266 108 -417 137 -101 19 -153 22 -363 23 -135 0 -279 -3
-320 -8 -55 -5 -70 -4 -57 3 17 11 40 18 87 25 14 2 43 10 65 19 32 12 81 14
250 12 183 -3 226 -7 335 -31z m-83 -521 c255 -33 479 -107 668 -221 78 -47
173 -127 207 -176 l22 -32 -40 36 c-138 123 -393 234 -662 289 -170 35 -256
43 -492 45 -245 3 -364 -7 -502 -43 -31 -8 -38 -7 -38 4 0 8 10 14 24 14 14 0
27 4 31 9 3 5 20 13 37 17 18 3 42 12 53 19 24 15 174 44 265 51 35 2 66 7 70
10 7 9 226 -5 357 -22z m123 -678 c218 -35 413 -96 520 -162 68 -42 171 -140
222 -211 l37 -51 -57 25 c-33 15 -83 51 -119 86 -86 84 -154 124 -283 167
-214 71 -431 100 -750 100 -240 0 -413 -12 -495 -33 -51 -13 -85 -12 -85 3 0
9 149 58 205 67 19 3 35 9 35 14 0 23 622 19 770 -5z m-1030 -86 c0 -5 -4 -10
-10 -10 -5 0 -10 5 -10 10 0 6 5 10 10 10 6 0 10 -4 10 -10z m-204 -274 c-4
-19 -18 -55 -32 -81 -23 -41 -26 -54 -22 -133 2 -74 7 -95 28 -126 49 -74 163
-112 377 -126 81 -5 171 -12 198 -15 28 -3 158 -10 289 -15 540 -23 858 -77
999 -170 76 -51 179 -169 205 -235 29 -74 40 -202 22 -276 -22 -94 -52 -142
-109 -172 -28 -16 -53 -33 -57 -39 -4 -7 -9 -6 -14 3 -5 8 6 27 31 53 62 65
83 131 84 261 0 95 -3 117 -24 163 -26 57 -123 155 -196 197 -43 26 -174 69
-240 79 -22 4 -65 11 -95 16 -30 5 -88 12 -129 15 -40 3 -77 7 -81 10 -4 3
-144 11 -311 20 -571 28 -749 44 -816 72 -18 7 -35 13 -38 13 -15 0 -84 39
-107 60 -15 14 -41 54 -59 89 -29 61 -31 70 -27 152 3 75 8 93 32 131 61 93
104 118 92 54z m-111 -1146 c8 -16 44 -58 78 -92 91 -91 216 -150 432 -205 97
-25 111 -26 445 -28 190 -1 382 1 428 4 97 8 113 -9 30 -33 -104 -29 -242 -41
-488 -41 -257 -1 -359 9 -480 44 -111 33 -167 54 -252 97 -75 38 -104 60 -171
130 -61 64 -87 84 -107 84 -14 0 -30 -4 -35 -9 -15 -13 -95 -23 -95 -12 0 9
95 41 122 41 8 0 24 11 36 25 28 32 38 32 57 -5z m2124 -805 c-29 -40 -114
-103 -125 -93 -3 4 145 138 153 138 2 0 -10 -20 -28 -45z m-2114 -118 c78 -32
240 -81 335 -101 187 -40 385 -56 664 -55 148 0 265 4 258 7 -6 4 19 7 56 7
37 0 121 4 187 9 175 12 151 0 -94 -49 -289 -58 -670 -62 -956 -9 -120 22
-309 81 -405 125 -100 47 -218 119 -245 150 -16 17 -3 13 60 -19 44 -22 107
-52 140 -65z m1846 -566 c-11 -19 -39 -39 -83 -59 -42 -18 -34 -7 29 37 64 47
67 48 54 22z m-1643 -77 c105 -39 223 -66 392 -91 90 -13 177 -17 400 -15 157
0 308 4 335 7 44 5 48 4 33 -8 -10 -8 -76 -22 -147 -32 -103 -14 -172 -16
-347 -12 -286 6 -456 37 -648 118 -66 27 -176 89 -131 74 11 -4 62 -23 113
-41z m1285 -81 c-7 -2 -19 -2 -25 0 -7 3 -2 5 12 5 14 0 19 -2 13 -5z m-58
-13 c-3 -5 -13 -10 -21 -10 -8 0 -12 5 -9 10 3 6 13 10 21 10 8 0 12 -4 9 -10z
m-1959 -366 c18 -14 18 -14 -6 -3 -31 14 -36 19 -24 19 6 0 19 -7 30 -16z
m403 -31 c1 -7 -3 -13 -9 -13 -5 0 -10 15 -9 33 0 27 2 29 9 12 5 -11 9 -26 9
-32z m371 -250 c0 -176 -4 -273 -10 -273 -6 0 -10 102 -10 288 0 189 4 282 10
272 6 -9 10 -129 10 -287z m1087 250 c-3 -10 -5 -2 -5 17 0 19 2 27 5 18 2
-10 2 -26 0 -35z m181 -240 c-2 -288 -6 -255 -10 100 -2 103 0 187 5 187 4 0
6 -129 5 -287z m762 -10 c0 -176 -4 -273 -10 -273 -6 0 -10 102 -10 288 0 189
4 282 10 272 6 -9 10 -129 10 -287z m347 230 c-2 -16 -4 -5 -4 22 0 28 2 40 4
28 2 -13 2 -35 0 -50z m-2047 22 c13 -14 21 -25 18 -25 -2 0 -15 11 -28 25
-13 14 -21 25 -18 25 2 0 15 -11 28 -25z m-500 -40 c0 -5 -5 -3 -10 5 -5 8
-10 20 -10 25 0 6 5 3 10 -5 5 -8 10 -19 10 -25z m-521 -55 c0 -9 -4 -8 -9 5
-5 11 -9 27 -9 35 0 9 4 8 9 -5 5 -11 9 -27 9 -35z m172 -21 l-9 -34 -1 37
c-1 20 2 45 6 55 7 16 8 16 11 -3 2 -12 -1 -37 -7 -55z m1529 -171 l-5 -243
-3 230 c-2 203 0 255 10 255 2 0 1 -109 -2 -242z m639 37 c0 -93 -3 -175 -7
-182 -4 -6 -7 78 -7 188 0 109 3 191 7 181 4 -9 7 -93 7 -187z m-2552 148 c-3
-10 -5 -2 -5 17 0 19 2 27 5 18 2 -10 2 -26 0 -35z m1270 10 c-3 -10 -5 -4 -5
12 0 17 2 24 5 18 2 -7 2 -21 0 -30z m1083 -153 c0 -179 1 -191 20 -202 11 -7
20 -16 20 -20 0 -14 -20 -8 -40 12 -19 19 -20 33 -20 210 0 120 4 190 10 190
6 0 10 -70 10 -190z m-1235 80 c10 -11 16 -20 13 -20 -3 0 -13 9 -23 20 -10
11 -16 20 -13 20 3 0 13 -9 23 -20z m-591 -43 c4 -19 3 -26 -4 -22 -5 3 -10
18 -10 32 0 32 5 28 14 -10z m1093 -29 c-3 -7 -5 -2 -5 12 0 14 2 19 5 13 2
-7 2 -19 0 -25z m-421 -10 l29 -33 -32 29 c-31 28 -38 36 -30 36 2 0 16 -15
33 -32z m-815 -169 c-8 -19 -10 -6 -10 57 -1 44 2 84 7 88 11 12 14 -117 3
-145z m1246 94 c-3 -10 -5 -2 -5 17 0 19 2 27 5 18 2 -10 2 -26 0 -35z m-929
-83 c-2 -66 -6 -120 -10 -120 -5 0 -8 54 -8 120 0 77 4 120 11 120 6 0 9 -41
7 -120z m2032 0 c0 -73 -4 -120 -10 -120 -6 0 -10 47 -10 120 0 73 4 120 10
120 6 0 10 -47 10 -120z m-2732 14 l-3 -49 -5 57 c-3 31 -1 53 3 49 5 -5 7
-30 5 -57z m1064 14 c-3 -61 -12 -60 -12 2 0 29 3 50 7 47 3 -4 6 -26 5 -49z
m-854 -33 c0 -16 -2 -15 -8 5 -4 14 -8 34 -8 45 0 16 2 15 8 -5 4 -14 8 -34 8
-45z m1429 3 c-2 -13 -4 -3 -4 22 0 25 2 35 4 23 2 -13 2 -33 0 -45z m-370
-10 c-2 -13 -4 -3 -4 22 0 25 2 35 4 23 2 -13 2 -33 0 -45z m1830 -30 c-3 -8
-6 -5 -6 6 -1 11 2 17 5 13 3 -3 4 -12 1 -19z m-1445 -40 c2 -20 0 -34 -4 -32
-4 3 -8 24 -7 47 1 47 6 41 11 -15z m-1235 16 c-3 -3 -12 -4 -19 -1 -8 3 -5 6
6 6 11 1 17 -2 13 -5z m100 -41 c-3 -10 -5 -2 -5 17 0 19 2 27 5 18 2 -10 2
-26 0 -35z m944 15 c-3 -21 -6 -26 -9 -15 -3 17 3 47 11 47 2 0 1 -15 -2 -32z
m1806 -15 c-3 -10 -5 -2 -5 17 0 19 2 27 5 18 2 -10 2 -26 0 -35z"/>
</g>
</svg>
