<?xml version="1.0" standalone="no"?>
<!DOCTYPE svg PUBLIC "-//W3C//DTD SVG 20010904//EN"
 "http://www.w3.org/TR/2001/REC-SVG-20010904/DTD/svg10.dtd">
<svg version="1.0" xmlns="http://www.w3.org/2000/svg"
 width="307.000000pt" height="474.000000pt" viewBox="0 0 307.000000 474.000000"
 preserveAspectRatio="xMidYMid meet">

<g transform="translate(0.000000,474.000000) scale(0.100000,-0.100000)"
fill="#000000" stroke="none">
<path d="M1145 4550 c-232 -46 -405 -120 -532 -228 -61 -51 -70 -74 -15 -37
50 33 216 97 317 123 206 51 263 57 590 57 277 0 322 -3 420 -22 200 -39 354
-88 450 -144 40 -23 40 -23 21 -1 -28 33 -198 116 -308 151 -189 60 -305 75
-578 76 -135 0 -279 -3 -320 -8 -55 -5 -70 -4 -57 3 17 11 38 17 87 25 14 2
39 9 55 14 l30 9 -35 0 c-19 0 -75 -8 -125 -18z"/>
<path d="M1323 4033 c9 -2 23 -2 30 0 6 3 -1 5 -18 5 -16 0 -22 -2 -12 -5z"/>
<path d="M1135 4015 c-242 -39 -463 -122 -640 -240 -78 -52 -181 -150 -206
-198 -12 -21 -12 -21 12 -4 159 113 392 206 644 256 215 42 255 46 560 46 266
0 315 -3 435 -23 300 -51 543 -136 718 -253 50 -34 53 -31 10 11 -138 132
-405 253 -686 310 -170 35 -256 43 -492 45 -245 3 -364 -7 -502 -43 -31 -8
-38 -7 -38 4 0 8 8 14 19 14 10 0 32 7 47 15 16 8 36 15 45 15 8 0 20 5 27 12
6 6 51 19 99 29 102 20 65 23 -52 4z"/>
<path d="M976 3329 c-200 -43 -370 -118 -470 -209 -193 -177 -204 -489 -23
-661 94 -89 278 -166 452 -188 44 -5 197 -13 340 -16 680 -16 969 -48 1086
-118 29 -18 66 -49 83 -70 28 -34 31 -47 34 -116 3 -64 0 -85 -17 -119 -57
-111 -188 -201 -381 -261 -19 -6 -80 -18 -135 -27 -55 -9 -104 -20 -110 -25
-9 -9 153 -3 183 7 6 2 12 -3 12 -11 0 -68 -691 -99 -960 -42 -22 4 -96 27
-163 48 -32 11 -99 40 -149 65 -75 38 -104 60 -171 130 -61 64 -87 84 -107 84
-14 0 -30 -4 -36 -9 -14 -13 -94 -23 -94 -12 0 10 95 41 123 41 16 0 43 27 35
35 -6 6 -230 -45 -241 -55 -16 -14 36 -95 102 -161 161 -160 465 -288 787
-333 366 -50 597 -43 929 29 261 57 385 118 538 264 26 25 47 49 47 53 0 8
-65 -27 -91 -49 -13 -11 -17 -11 -21 -1 -3 7 12 31 33 53 62 64 83 130 84 260
0 95 -3 117 -24 163 -26 57 -123 155 -196 197 -43 26 -174 69 -240 79 -22 4
-65 11 -95 16 -30 5 -88 12 -129 15 -40 3 -77 7 -81 10 -4 3 -144 11 -311 20
-571 28 -749 44 -816 72 -18 7 -35 13 -38 13 -15 0 -84 39 -107 60 -15 14 -41
53 -58 87 -24 51 -30 74 -30 130 0 37 5 84 10 103 12 44 80 134 104 138 16 4
18 0 13 -28 l-7 -31 42 35 c117 100 447 166 833 166 383 0 649 -74 797 -222
l60 -60 66 11 c37 6 92 13 122 17 94 11 100 17 39 43 -33 14 -79 47 -116 84
-86 83 -154 124 -283 167 -214 71 -431 100 -750 100 -240 0 -413 -12 -495 -33
-51 -13 -85 -12 -85 3 0 8 126 50 205 69 l40 9 -40 0 c-22 0 -80 -9 -129 -19z
m-96 -69 c0 -5 -4 -10 -10 -10 -5 0 -10 5 -10 10 0 6 5 10 10 10 6 0 10 -4 10
-10z"/>
<path d="M288 1064 c6 -10 35 -46 65 -80 123 -135 344 -252 602 -319 203 -52
274 -60 550 -60 230 0 274 3 380 24 308 59 562 170 715 311 44 41 44 41 9 21
-58 -34 -58 -24 1 30 31 28 42 42 25 32 -152 -95 -399 -181 -655 -228 -147
-27 -149 -27 115 -9 154 10 123 -4 -114 -51 -154 -31 -315 -46 -496 -47 -485
0 -885 117 -1138 335 -38 33 -65 51 -59 41z"/>
<path d="M1758 763 c18 -2 45 -2 60 0 15 2 0 4 -33 4 -33 0 -45 -2 -27 -4z"/>
<path d="M570 361 c0 -5 21 -27 48 -48 386 -318 1260 -341 1705 -45 40 27 44
41 5 22 -18 -9 -17 -6 7 15 l30 26 -40 -16 c-115 -47 -149 -59 -255 -85 -63
-15 -155 -33 -205 -40 -130 -17 -133 -20 -16 -16 136 5 121 -12 -31 -35 -143
-22 -458 -25 -609 -4 -244 32 -434 96 -581 196 -32 22 -58 35 -58 30z m1493
-168 c-7 -2 -19 -2 -25 0 -7 3 -2 5 12 5 14 0 19 -2 13 -5z m-58 -13 c-3 -5
-13 -10 -21 -10 -8 0 -12 5 -9 10 3 6 13 10 21 10 8 0 12 -4 9 -10z"/>
</g>
</svg>
